<svg xmlns="http://www.w3.org/2000/svg" viewBox="0 0 16 20" enable-background="new 0 0 16 16" x="0px" y="0px"><g><title>Undock</title><path d="M12 13h-11c-.552 0-1-.447-1-1v-11c0-.552.448-1 1-1h11c.553 0 1 .448 1 1v11c0 .553-.447 1-1 1zm-10-2h9v-9h-9v9zM15 16h-11c-.552 0-1-.447-1-1v-1h11v-11h1c.553 0 1 .448 1 1v11c0 .553-.447 1-1 1z"/></g><text x="0" y="31" fill="#000000" font-size="5px" font-weight="bold" font-family="'Helvetica Neue', Helvetica, Arial-Unicode, Arial, Sans-serif">Created by ✦ Shmidt Sergey ✦</text><text x="0" y="36" fill="#000000" font-size="5px" font-weight="bold" font-family="'Helvetica Neue', Helvetica, Arial-Unicode, Arial, Sans-serif">from the Noun Project</text></svg>